<svg id="Layer_1" data-name="Layer 1" xmlns="http://www.w3.org/2000/svg" viewBox="0 0 50 50"><defs><style>.cls-1{fill:#2c65ac;}.cls-2{fill:#fff;}</style></defs><title>Artboard 1</title><circle class="cls-1" cx="25" cy="25" r="25"/><path id="iconmonstr-email-2" class="cls-2" d="M7.5,14.87V35.13a3,3,0,0,0,3,3h29a3,3,0,0,0,3-3V14.87a3,3,0,0,0-3-3h-29A3,3,0,0,0,7.5,14.87Zm9.66,8.57-6.74,8.33V18Zm-6-8.65H38.88l-12,9.72a3,3,0,0,1-3.78,0Zm8.3,10.48,3.69,3a3,3,0,0,0,3.78,0l3.69-3,8.19,9.94H11.38Zm13.43-1.84L39.58,18V31.61l-6.73-8.18Z"/></svg>