<svg id="Layer_1" data-name="Layer 1" xmlns="http://www.w3.org/2000/svg" viewBox="0 0 408.8 408.8"><defs><style>.cls-1{fill:#ff9400;}</style></defs><title>Artboard 1</title><path class="cls-1" d="M353.7,0H55.1A55.14,55.14,0,0,0,0,55.1V353.7a55.14,55.14,0,0,0,55.1,55.1H202.4l.3-146.1h-38a9.07,9.07,0,0,1-9-8.9l-.2-47.1a9,9,0,0,1,9-9h37.9V152.2c0-52.8,32.2-81.6,79.3-81.6h38.6a9,9,0,0,1,9,9v39.7a9,9,0,0,1-9,9H296.6c-25.6,0-30.6,12.2-30.6,30v39.4h56.3a9,9,0,0,1,8.9,10l-5.6,47.1a9,9,0,0,1-8.9,7.9H266.2l-.3,146.1h87.6a55.14,55.14,0,0,0,55.1-55.1V55.1A54.84,54.84,0,0,0,353.7,0Z"/></svg>