<svg id="Layer_1" data-name="Layer 1" xmlns="http://www.w3.org/2000/svg" viewBox="0 0 551 551"><defs><style>.cls-1{fill:#ff9400;}</style></defs><title>Artboard 1</title><path class="cls-1" d="M386.9,0H164.2C73.6,0,0,73.6,0,164.2V386.9C0,477.4,73.6,551,164.2,551H386.9c90.5,0,164.2-73.6,164.2-164.2V164.2C551,73.6,477.4,0,386.9,0ZM495.6,386.9A108.74,108.74,0,0,1,386.9,495.6H164.2A108.74,108.74,0,0,1,55.5,386.9V164.2A108.74,108.74,0,0,1,164.2,55.5H386.9A108.74,108.74,0,0,1,495.6,164.2V386.9Z"/><path class="cls-1" d="M275.5,133C196.9,133,133,196.9,133,275.5S196.9,418,275.5,418,418,354.1,418,275.5,354.1,133,275.5,133Zm0,229.6a87.1,87.1,0,1,1,87.1-87.1A87.11,87.11,0,0,1,275.5,362.6Z"/><circle class="cls-1" cx="418.3" cy="134.1" r="34.1"/></svg>