<svg id="Layer_1" data-name="Layer 1" xmlns="http://www.w3.org/2000/svg" viewBox="0 0 50 50"><defs><style>.cls-1{fill:#2e66ac;}.cls-2{fill:#fff;}.cls-3,.cls-4{fill:none;}.cls-4{stroke:#fff;stroke-miterlimit:10;}</style></defs><title>Artboard 1</title><circle class="cls-1" cx="25" cy="25" r="25"/><path class="cls-2" d="M29.65,13.44V9.58l1.5,1.48v2.38a1.5,1.5,0,0,0,1.5,1.5h2.46l1.52,1.5h-4A3,3,0,0,1,29.65,13.44Z"/><path class="cls-3" d="M36.19,16V38.48a1.5,1.5,0,0,1-1.5,1.5H15.31a1.5,1.5,0,0,1-1.5-1.5v-27a1.5,1.5,0,0,1,1.5-1.5h14.8Z"/><path class="cls-2" d="M30.71,8.52H15.31a3,3,0,0,0-3,3v27a3,3,0,0,0,3,3H34.69a3,3,0,0,0,3-3V15.38Zm5.48,30a1.5,1.5,0,0,1-1.5,1.5H15.31a1.5,1.5,0,0,1-1.5-1.5v-27a1.5,1.5,0,0,1,1.5-1.5h14.8l6.08,6Z"/><path class="cls-2" d="M26.78,12.8v3.57H16.59V12.8H26.78m1-1H15.59v5.57H27.78V11.8Z"/><path class="cls-2" d="M33.43,28.23v3.56H16.59V28.23H33.43m1-1H15.59v5.56H34.43V27.23Z"/><line class="cls-4" x1="15.6" y1="20.02" x2="34.44" y2="20.02"/><line class="cls-4" x1="15.59" y1="22.26" x2="34.43" y2="22.26"/><line class="cls-4" x1="15.61" y1="24.5" x2="34.46" y2="24.5"/><line class="cls-4" x1="15.61" y1="35.52" x2="34.46" y2="35.52"/><line class="cls-4" x1="15.6" y1="37.76" x2="34.44" y2="37.76"/></svg>