<svg id="Layer_1" data-name="Layer 1" xmlns="http://www.w3.org/2000/svg" viewBox="0 0 410.2 410.2"><defs><style>.cls-1{fill:#ff9400;}</style></defs><title>Artboard 1</title><path class="cls-1" d="M403.6,74.2a165.13,165.13,0,0,1-28.3,9.5,89.09,89.09,0,0,0,23.3-37.1h0a4.63,4.63,0,0,0-6.8-5.4h0a165.05,165.05,0,0,1-43.2,17.9,12.41,12.41,0,0,1-2.7.3,11.27,11.27,0,0,1-7.6-2.9,88.65,88.65,0,0,0-58.5-22.1,96.64,96.64,0,0,0-28,4.3,85.44,85.44,0,0,0-57.7,61.7A94.82,94.82,0,0,0,192,133a3.24,3.24,0,0,1-.8,2.5,3.19,3.19,0,0,1-2.4,1.1h-.3c-62.8-5.8-119.4-36.1-159.4-85.1h0a4.64,4.64,0,0,0-7.6.6h0A88.43,88.43,0,0,0,35.9,159.6a82.82,82.82,0,0,1-20.2-7.8h0a4.66,4.66,0,0,0-6.9,4h0a88.7,88.7,0,0,0,51.6,81.6H58.5A82.63,82.63,0,0,1,43.6,236h0a4.68,4.68,0,0,0-5.3,6h0a88.53,88.53,0,0,0,70,60.3,163.1,163.1,0,0,1-91.4,27.8H6.7a6.76,6.76,0,0,0-6.6,5.1,6.92,6.92,0,0,0,3.4,7.7,242.9,242.9,0,0,0,122,32.9c37.5,0,72.5-7.4,104.2-22.1A231.12,231.12,0,0,0,306,296.6a250.57,250.57,0,0,0,46.7-78.2,246.4,246.4,0,0,0,15.9-85.6v-1.3a15.3,15.3,0,0,1,5.6-11.7,174.8,174.8,0,0,0,35.2-38.6h0c2.5-4.1-1.5-8.9-5.8-7Z"/></svg>